<svg width="45.000000" height="44.000000" viewBox="0 0 45 44" fill="none" xmlns="http://www.w3.org/2000/svg" xmlns:xlink="http://www.w3.org/1999/xlink">
	<desc>
			Created with Pixso.
	</desc>
	<defs>
		<clipPath id="clip285_1013">
			<rect id="ph:file-html-thin" rx="9.923828" width="44.847656" height="43.847656" transform="translate(0.076172 0.076172)" fill="white" fill-opacity="0"/>
		</clipPath>
	</defs>
	<rect id="ph:file-html-thin" rx="9.923828" width="44.847656" height="43.847656" transform="translate(0.076172 0.076172)" fill="#00ADB5" fill-opacity="1.000000"/>
	<g clip-path="url(#clip285_1013)">
		<path id="Vector" d="M21.61 29.07C21.61 29.19 21.56 29.31 21.48 29.4C21.39 29.49 21.27 29.53 21.15 29.53L19.76 29.53L19.76 33.69C19.76 33.81 19.72 33.93 19.63 34.01C19.54 34.1 19.43 34.15 19.3 34.15C19.18 34.15 19.06 34.1 18.98 34.01C18.89 33.93 18.84 33.81 18.84 33.69L18.84 29.53L17.46 29.53C17.33 29.53 17.22 29.49 17.13 29.4C17.04 29.31 17 29.19 17 29.07C17 28.95 17.04 28.83 17.13 28.75C17.22 28.66 17.33 28.61 17.46 28.61L21.15 28.61C21.27 28.61 21.39 28.66 21.48 28.75C21.56 28.83 21.61 28.95 21.61 29.07ZM14.69 28.61C14.56 28.61 14.45 28.66 14.36 28.75C14.27 28.83 14.23 28.95 14.23 29.07L14.23 30.92L11.92 30.92L11.92 29.07C11.92 28.95 11.87 28.83 11.78 28.75C11.7 28.66 11.58 28.61 11.46 28.61C11.33 28.61 11.22 28.66 11.13 28.75C11.04 28.83 11 28.95 11 29.07L11 33.69C11 33.81 11.04 33.93 11.13 34.01C11.22 34.1 11.33 34.15 11.46 34.15C11.58 34.15 11.7 34.1 11.78 34.01C11.87 33.93 11.92 33.81 11.92 33.69L11.92 31.84L14.23 31.84L14.23 33.69C14.23 33.81 14.27 33.93 14.36 34.01C14.45 34.1 14.56 34.15 14.69 34.15C14.81 34.15 14.93 34.1 15.01 34.01C15.1 33.93 15.15 33.81 15.15 33.69L15.15 29.07C15.15 28.95 15.1 28.83 15.01 28.75C14.93 28.66 14.81 28.61 14.69 28.61ZM34.53 33.23L32.23 33.23L32.23 29.07C32.23 28.95 32.18 28.83 32.09 28.75C32 28.66 31.89 28.61 31.76 28.61C31.64 28.61 31.52 28.66 31.44 28.75C31.35 28.83 31.3 28.95 31.3 29.07L31.3 33.69C31.3 33.81 31.35 33.93 31.44 34.01C31.52 34.1 31.64 34.15 31.76 34.15L34.53 34.15C34.66 34.15 34.77 34.1 34.86 34.01C34.95 33.93 35 33.81 35 33.69C35 33.57 34.95 33.45 34.86 33.36C34.77 33.27 34.66 33.23 34.53 33.23ZM28.67 28.63C28.58 28.61 28.48 28.61 28.39 28.64C28.29 28.67 28.21 28.73 28.15 28.81L26.23 31.51L24.3 28.81C24.24 28.73 24.16 28.67 24.07 28.64C23.97 28.61 23.87 28.61 23.78 28.63C23.69 28.66 23.6 28.72 23.55 28.8C23.49 28.88 23.46 28.97 23.46 29.07L23.46 33.69C23.46 33.81 23.51 33.93 23.59 34.01C23.68 34.1 23.8 34.15 23.92 34.15C24.04 34.15 24.16 34.1 24.24 34.01C24.33 33.93 24.38 33.81 24.38 33.69L24.38 30.51L25.85 32.57C25.89 32.63 25.95 32.68 26.01 32.71C26.08 32.74 26.15 32.76 26.23 32.76C26.3 32.76 26.37 32.74 26.44 32.71C26.51 32.68 26.56 32.63 26.61 32.57L28.07 30.51L28.07 33.69C28.07 33.81 28.12 33.93 28.21 34.01C28.29 34.1 28.41 34.15 28.53 34.15C28.66 34.15 28.77 34.1 28.86 34.01C28.95 33.93 29 33.81 29 33.69L29 29.07C28.99 28.97 28.96 28.88 28.91 28.8C28.85 28.72 28.77 28.66 28.67 28.63ZM31.3 24.92C31.18 24.92 31.06 24.87 30.98 24.78C30.89 24.7 30.84 24.58 30.84 24.46L30.84 19.38L24.84 19.38C24.72 19.38 24.6 19.33 24.51 19.24C24.43 19.16 24.38 19.04 24.38 18.92L24.38 12.92L13.76 12.92C13.64 12.92 13.52 12.97 13.44 13.05C13.35 13.14 13.3 13.26 13.3 13.38L13.3 24.46C13.3 24.58 13.25 24.7 13.17 24.78C13.08 24.87 12.96 24.92 12.84 24.92C12.72 24.92 12.6 24.87 12.51 24.78C12.43 24.7 12.38 24.58 12.38 24.46L12.38 13.38C12.38 13.01 12.53 12.66 12.79 12.4C13.04 12.14 13.4 12 13.76 12L24.84 12C24.9 11.99 24.96 12 25.02 12.03C25.07 12.05 25.12 12.09 25.16 12.13L31.63 18.58C31.71 18.68 31.76 18.79 31.76 18.92L31.76 24.46C31.76 24.58 31.72 24.7 31.63 24.78C31.54 24.87 31.43 24.92 31.3 24.92ZM25.3 18.46L30.18 18.46L25.3 13.58L25.3 18.46Z" fill="#FFFFFF" fill-opacity="1.000000" fill-rule="nonzero"/>
		<path id="Vector" d="M30.69 24.71Q30.74 24.83 30.83 24.92Q30.93 25.02 31.05 25.07Q31.17 25.12 31.3 25.12Q31.44 25.12 31.56 25.07Q31.67 25.02 31.77 24.92Q31.87 24.83 31.92 24.71Q31.96 24.59 31.96 24.46L31.96 18.91L31.96 18.91Q31.96 18.78 31.91 18.66Q31.86 18.55 31.77 18.45L31.77 18.44L25.31 12Q25.27 11.95 25.21 11.91Q25.16 11.87 25.1 11.84Q25.03 11.82 24.97 11.81Q24.9 11.79 24.84 11.8L13.76 11.8Q13.61 11.8 13.46 11.83Q13.3 11.86 13.16 11.92Q13.01 11.98 12.88 12.06Q12.76 12.15 12.64 12.26Q12.53 12.37 12.45 12.5Q12.36 12.63 12.3 12.77Q12.24 12.92 12.21 13.07Q12.18 13.22 12.18 13.38L12.18 24.46Q12.18 24.59 12.23 24.71Q12.28 24.83 12.37 24.92Q12.47 25.02 12.59 25.07Q12.7 25.12 12.84 25.12Q12.98 25.12 13.1 25.07Q13.21 25.02 13.31 24.92Q13.41 24.83 13.45 24.71Q13.5 24.59 13.5 24.46L13.5 13.38Q13.5 13.33 13.52 13.28Q13.54 13.23 13.58 13.19Q13.62 13.16 13.66 13.14Q13.71 13.12 13.76 13.12L24.18 13.12L24.18 18.92Q24.18 19.06 24.23 19.17Q24.28 19.29 24.37 19.39Q24.47 19.48 24.59 19.53Q24.7 19.58 24.84 19.58L30.64 19.58L30.64 24.46Q30.64 24.59 30.69 24.71ZM30.84 19.58L30.84 24.46C30.84 24.58 30.89 24.7 30.98 24.78C31.06 24.87 31.18 24.92 31.3 24.92C31.43 24.92 31.54 24.87 31.63 24.78C31.72 24.7 31.76 24.58 31.76 24.46L31.76 18.92C31.76 18.79 31.71 18.68 31.63 18.58L25.16 12.13C25.12 12.09 25.07 12.05 25.02 12.03C24.96 12 24.9 11.99 24.84 12L13.76 12C13.4 12 13.04 12.14 12.79 12.4C12.53 12.66 12.38 13.01 12.38 13.38L12.38 24.46C12.38 24.58 12.43 24.7 12.51 24.78C12.6 24.87 12.72 24.92 12.84 24.92C12.96 24.92 13.08 24.87 13.17 24.78C13.25 24.7 13.3 24.58 13.3 24.46L13.3 13.38C13.3 13.26 13.35 13.14 13.44 13.05C13.52 12.97 13.64 12.92 13.76 12.92L24.38 12.92L24.38 13.12L24.38 18.92C24.38 19.04 24.43 19.16 24.51 19.24C24.6 19.33 24.72 19.38 24.84 19.38L30.84 19.38L30.84 19.58ZM29.98 18.26L30.18 18.46L25.3 18.46L25.3 13.58L29.98 18.26ZM29.7 18.26L25.5 14.06L25.5 18.26L29.7 18.26ZM14.43 28.46Q14.32 28.51 14.22 28.6Q14.12 28.7 14.07 28.82Q14.03 28.94 14.03 29.07L14.03 30.72L12.12 30.72L12.12 29.07Q12.12 28.94 12.07 28.82Q12.02 28.7 11.92 28.6Q11.83 28.51 11.71 28.46Q11.59 28.41 11.46 28.41Q11.32 28.41 11.2 28.46Q11.09 28.51 10.99 28.6Q10.89 28.7 10.84 28.82Q10.8 28.94 10.8 29.07L10.8 33.69Q10.8 33.82 10.84 33.94Q10.89 34.06 10.99 34.16Q11.09 34.25 11.2 34.3Q11.32 34.35 11.46 34.35Q11.59 34.35 11.71 34.3Q11.83 34.25 11.92 34.16Q12.02 34.06 12.07 33.94Q12.12 33.82 12.12 33.69L12.12 32.04L14.03 32.04L14.03 33.69Q14.03 33.82 14.07 33.94Q14.12 34.06 14.22 34.16Q14.32 34.25 14.43 34.3Q14.55 34.35 14.69 34.35Q14.82 34.35 14.94 34.3Q15.06 34.25 15.16 34.16Q15.25 34.06 15.3 33.94Q15.35 33.82 15.35 33.69L15.35 29.07Q15.35 28.94 15.3 28.82Q15.25 28.7 15.16 28.6Q15.06 28.51 14.94 28.46Q14.82 28.41 14.69 28.41Q14.55 28.41 14.43 28.46ZM14.03 31.84L14.23 31.84L14.23 32.04L14.23 33.69C14.23 33.81 14.27 33.93 14.36 34.01C14.45 34.1 14.56 34.15 14.69 34.15C14.81 34.15 14.93 34.1 15.01 34.01C15.1 33.93 15.15 33.81 15.15 33.69L15.15 29.07C15.15 28.95 15.1 28.83 15.01 28.75C14.93 28.66 14.81 28.61 14.69 28.61C14.56 28.61 14.45 28.66 14.36 28.75C14.27 28.83 14.23 28.95 14.23 29.07L14.23 30.92L11.92 30.92L11.92 29.07C11.92 28.95 11.87 28.83 11.78 28.75C11.7 28.66 11.58 28.61 11.46 28.61C11.33 28.61 11.22 28.66 11.13 28.75C11.04 28.83 11 28.95 11 29.07L11 33.69C11 33.81 11.04 33.93 11.13 34.01C11.22 34.1 11.33 34.15 11.46 34.15C11.58 34.15 11.7 34.1 11.78 34.01C11.87 33.93 11.92 33.81 11.92 33.69L11.92 31.84L12.12 31.84L14.03 31.84ZM21.4 29.69Q21.52 29.64 21.62 29.54Q21.71 29.44 21.76 29.33Q21.81 29.21 21.81 29.07Q21.81 28.94 21.76 28.82Q21.71 28.7 21.62 28.6Q21.52 28.51 21.4 28.46Q21.29 28.41 21.15 28.41L17.46 28.41Q17.32 28.41 17.2 28.46Q17.09 28.51 16.99 28.6Q16.89 28.7 16.84 28.82Q16.79 28.94 16.79 29.07Q16.79 29.21 16.84 29.33Q16.89 29.44 16.99 29.54Q17.09 29.64 17.2 29.69Q17.32 29.73 17.46 29.73L18.64 29.73L18.64 33.69Q18.64 33.82 18.69 33.94Q18.74 34.06 18.83 34.16Q18.93 34.25 19.05 34.3Q19.17 34.35 19.3 34.35Q19.44 34.35 19.56 34.3Q19.67 34.25 19.77 34.16Q19.87 34.06 19.92 33.94Q19.96 33.82 19.96 33.69L19.96 29.73L21.15 29.73Q21.29 29.73 21.4 29.69ZM19.76 29.73L19.76 29.53L21.15 29.53C21.27 29.53 21.39 29.49 21.48 29.4C21.56 29.31 21.61 29.19 21.61 29.07C21.61 28.95 21.56 28.83 21.48 28.75C21.39 28.66 21.27 28.61 21.15 28.61L17.46 28.61C17.33 28.61 17.22 28.66 17.13 28.75C17.04 28.83 17 28.95 17 29.07C17 29.19 17.04 29.31 17.13 29.4C17.22 29.49 17.33 29.53 17.46 29.53L18.84 29.53L18.84 33.69C18.84 33.81 18.89 33.93 18.98 34.01C19.06 34.1 19.18 34.15 19.3 34.15C19.43 34.15 19.54 34.1 19.63 34.01C19.72 33.93 19.76 33.81 19.76 33.69L19.76 29.73ZM32.23 33.03L32.23 33.23L34.53 33.23C34.66 33.23 34.77 33.27 34.86 33.36C34.95 33.45 35 33.57 35 33.69C35 33.81 34.95 33.93 34.86 34.01C34.77 34.1 34.66 34.15 34.53 34.15L31.76 34.15C31.64 34.15 31.52 34.1 31.44 34.01C31.35 33.93 31.3 33.81 31.3 33.69L31.3 29.07C31.3 28.95 31.35 28.83 31.44 28.75C31.52 28.66 31.64 28.61 31.76 28.61C31.89 28.61 32 28.66 32.09 28.75C32.18 28.83 32.23 28.95 32.23 29.07L32.23 33.03ZM32.43 33.03L32.43 29.07Q32.43 28.94 32.38 28.82Q32.33 28.7 32.23 28.6Q32.14 28.51 32.02 28.46Q31.9 28.41 31.76 28.41Q31.63 28.41 31.51 28.46Q31.39 28.51 31.3 28.6Q31.2 28.7 31.15 28.82Q31.1 28.94 31.1 29.07L31.1 33.69Q31.1 33.82 31.15 33.94Q31.2 34.06 31.3 34.16Q31.39 34.25 31.51 34.3Q31.63 34.35 31.76 34.35L34.53 34.35Q34.67 34.35 34.79 34.3Q34.9 34.25 35 34.16Q35.1 34.06 35.15 33.94Q35.2 33.82 35.2 33.69Q35.2 33.55 35.15 33.43Q35.1 33.32 35 33.22Q34.9 33.12 34.79 33.07Q34.67 33.03 34.53 33.03L32.43 33.03ZM28.52 28.41Q28.42 28.42 28.32 28.45Q28.22 28.48 28.14 28.54Q28.06 28.6 27.99 28.69L27.99 28.69L26.23 31.16L24.46 28.69L24.46 28.69Q24.39 28.6 24.31 28.54Q24.23 28.48 24.13 28.45Q24.03 28.42 23.93 28.41Q23.83 28.41 23.72 28.44L23.72 28.44L23.72 28.44Q23.62 28.48 23.53 28.53Q23.45 28.59 23.39 28.68Q23.32 28.77 23.29 28.87Q23.26 28.96 23.26 29.07L23.26 33.69Q23.26 33.82 23.31 33.94Q23.35 34.06 23.45 34.16Q23.55 34.25 23.66 34.3Q23.78 34.35 23.92 34.35Q24.06 34.35 24.17 34.3Q24.29 34.25 24.39 34.16Q24.48 34.06 24.53 33.94Q24.58 33.82 24.58 33.69L24.58 31.14L25.68 32.68Q25.74 32.76 25.81 32.82Q25.86 32.86 25.92 32.89Q25.99 32.92 26.07 32.94Q26.15 32.96 26.23 32.96Q26.31 32.96 26.38 32.94Q26.46 32.92 26.53 32.89Q26.6 32.85 26.66 32.8Q26.72 32.75 26.77 32.69L27.87 31.14L27.87 33.69Q27.87 33.82 27.92 33.94Q27.97 34.06 28.07 34.16Q28.16 34.25 28.28 34.3Q28.4 34.35 28.53 34.35Q28.67 34.35 28.79 34.3Q28.9 34.25 29 34.16Q29.1 34.06 29.15 33.94Q29.2 33.82 29.2 33.69L29.2 29.07Q29.19 28.96 29.16 28.86Q29.13 28.77 29.07 28.68Q29 28.59 28.92 28.53Q28.83 28.48 28.73 28.44L28.73 28.44L28.73 28.44Q28.63 28.41 28.52 28.41ZM27.87 30.79L28.07 30.51L28.07 33.69C28.07 33.81 28.12 33.93 28.21 34.01C28.29 34.1 28.41 34.15 28.53 34.15C28.66 34.15 28.77 34.1 28.86 34.01C28.95 33.93 29 33.81 29 33.69L29 29.07C28.99 28.97 28.96 28.88 28.91 28.8C28.85 28.72 28.77 28.66 28.67 28.63C28.58 28.61 28.48 28.61 28.39 28.64C28.29 28.67 28.21 28.73 28.15 28.81L26.35 31.33L26.23 31.51L26.1 31.33L24.3 28.81C24.24 28.73 24.16 28.67 24.07 28.64C23.97 28.61 23.87 28.61 23.78 28.63C23.69 28.66 23.6 28.72 23.55 28.8C23.49 28.88 23.46 28.97 23.46 29.07L23.46 33.69C23.46 33.81 23.51 33.93 23.59 34.01C23.68 34.1 23.8 34.15 23.92 34.15C24.04 34.15 24.16 34.1 24.24 34.01C24.33 33.93 24.38 33.81 24.38 33.69L24.38 30.51L24.58 30.79L25.85 32.57C25.89 32.63 25.95 32.68 26.01 32.71C26.08 32.74 26.15 32.76 26.23 32.76C26.3 32.76 26.37 32.74 26.44 32.71C26.51 32.68 26.56 32.63 26.61 32.57L27.87 30.79Z" fill="#FFFFFF" fill-opacity="1.000000" fill-rule="evenodd"/>
	</g>
</svg>
