<svg width="45.000000" height="44.000000" viewBox="0 0 45 44" fill="none" xmlns="http://www.w3.org/2000/svg" xmlns:xlink="http://www.w3.org/1999/xlink">
	<desc>
			Created with Pixso.
	</desc>
	<defs>
		<clipPath id="clip285_1015">
			<rect id="ph:file-html-thin" rx="10.000000" width="45.000000" height="44.000000" transform="translate(0.000000 0.000000)" fill="white" fill-opacity="0"/>
		</clipPath>
	</defs>
	<rect id="ph:file-html-thin" rx="10.000000" width="45.000000" height="44.000000" transform="translate(0.000000 0.000000)" fill="#00ADB5" fill-opacity="1.000000"/>
	<g clip-path="url(#clip285_1015)">
		<path id="Vector" d="M15.5 13C15.5 12.2 15.81 11.44 16.37 10.87C16.94 10.31 17.7 10 18.5 10L25.37 10C25.97 10 26.54 10.23 26.96 10.66L32.84 16.53C33.26 16.95 33.49 17.52 33.5 18.12L33.5 31C33.5 31.79 33.18 32.55 32.62 33.12C32.05 33.68 31.29 34 30.5 34L22.25 34C22.57 33.56 22.81 33.05 22.92 32.5L30.5 32.5C30.89 32.5 31.27 32.34 31.56 32.06C31.84 31.77 32 31.39 32 31L32 19L26.75 19C26.15 19 25.58 18.76 25.15 18.34C24.73 17.91 24.5 17.34 24.5 16.75L24.5 11.5L18.5 11.5C18.1 11.5 17.72 11.65 17.43 11.93C17.15 12.22 17 12.6 17 13L17 24.25C16.87 24.34 16.76 24.44 16.65 24.54C16.38 24.12 15.97 23.79 15.5 23.62L15.5 13ZM26.75 17.5L31.68 17.5L26 11.81L26 16.75C26 16.94 26.07 17.13 26.21 17.28C26.36 17.42 26.55 17.5 26.75 17.5ZM14.75 25C14.55 25 14.36 25.07 14.21 25.21C14.07 25.36 14 25.55 14 25.75L14 31.75C14 31.94 13.92 32.13 13.78 32.28C13.63 32.42 13.44 32.5 13.25 32.5C13.05 32.5 12.86 32.42 12.71 32.28C12.57 32.13 12.5 31.94 12.5 31.75L12.5 31C12.5 30.8 12.42 30.61 12.28 30.46C12.13 30.32 11.94 30.25 11.75 30.25C11.55 30.25 11.36 30.32 11.21 30.46C11.07 30.61 11 30.8 11 31L11 31.75C11 32.34 11.23 32.91 11.65 33.34C12.08 33.76 12.65 34 13.25 34C13.84 34 14.41 33.76 14.84 33.34C15.26 32.91 15.5 32.34 15.5 31.75L15.5 25.75C15.5 25.55 15.42 25.36 15.28 25.21C15.13 25.07 14.94 25 14.75 25ZM17 27.25C17 26.65 17.23 26.08 17.65 25.65C18.08 25.23 18.65 25 19.25 25C19.84 25 20.41 25.23 20.84 25.65C21.26 26.08 21.5 26.65 21.5 27.25C21.5 27.44 21.42 27.63 21.28 27.78C21.13 27.92 20.94 28 20.75 28C20.55 28 20.36 27.92 20.21 27.78C20.07 27.63 20 27.44 20 27.25C20 27.05 19.92 26.86 19.78 26.71C19.63 26.57 19.44 26.5 19.25 26.5C19.05 26.5 18.86 26.57 18.71 26.71C18.57 26.86 18.5 27.05 18.5 27.25L18.5 27.82C18.5 27.96 18.53 28.09 18.61 28.21C18.68 28.33 18.78 28.43 18.91 28.49L20.25 29.16C20.63 29.35 20.94 29.63 21.16 29.99C21.38 30.34 21.5 30.75 21.5 31.17L21.5 31.75C21.5 32.34 21.26 32.91 20.84 33.34C20.41 33.76 19.84 34 19.25 34C18.65 34 18.08 33.76 17.65 33.34C17.23 32.91 17 32.34 17 31.75C17 31.55 17.07 31.36 17.21 31.21C17.36 31.07 17.55 31 17.75 31C17.94 31 18.13 31.07 18.28 31.21C18.42 31.36 18.5 31.55 18.5 31.75C18.5 31.94 18.57 32.13 18.71 32.28C18.86 32.42 19.05 32.5 19.25 32.5C19.44 32.5 19.63 32.42 19.78 32.28C19.92 32.13 20 31.94 20 31.75L20 31.17C20 31.03 19.96 30.9 19.88 30.78C19.81 30.66 19.71 30.56 19.58 30.5L18.24 29.83C17.86 29.64 17.55 29.36 17.33 29C17.11 28.65 16.99 28.24 17 27.82L17 27.25Z" fill="#FFFFFF" fill-opacity="1.000000" fill-rule="nonzero"/>
	</g>
</svg>
