<svg width="45.000000" height="44.000000" viewBox="0 0 45 44" fill="none" xmlns="http://www.w3.org/2000/svg" xmlns:xlink="http://www.w3.org/1999/xlink">
	<desc>
			Created with Pixso.
	</desc>
	<defs>
		<clipPath id="clip285_1017">
			<rect id="ph:file-html-thin" rx="9.923828" width="44.847656" height="43.847656" transform="translate(0.076172 0.076173)" fill="white" fill-opacity="0"/>
		</clipPath>
	</defs>
	<rect id="ph:file-html-thin" rx="9.923828" width="44.847656" height="43.847656" transform="translate(0.076172 0.076173)" fill="#00ADB5" fill-opacity="1.000000"/>
	<g clip-path="url(#clip285_1017)">
		<path id="Vector" d="M27.85 9L16.38 9C15.75 9 15.15 9.25 14.7 9.7C14.25 10.15 14 10.75 14 11.38L14 32.4C14 33.04 14.25 33.64 14.7 34.09C15.15 34.54 15.75 34.79 16.38 34.79L27.85 34.79C28.48 34.79 29.09 34.54 29.53 34.09C29.98 33.64 30.23 33.04 30.24 32.4L30.24 11.38C30.23 10.75 29.98 10.15 29.53 9.7C29.09 9.25 28.48 9 27.85 9ZM14.95 13.77L29.28 13.77L29.28 30.01L14.95 30.01L14.95 13.77ZM16.38 9.95L27.85 9.95C28.23 9.95 28.59 10.1 28.86 10.37C29.13 10.64 29.28 11 29.28 11.38L29.28 12.82L14.95 12.82L14.95 11.38C14.95 11 15.1 10.64 15.37 10.37C15.64 10.1 16 9.95 16.38 9.95ZM27.85 33.84L16.38 33.84C16 33.84 15.64 33.69 15.37 33.42C15.1 33.15 14.95 32.78 14.95 32.4L14.95 30.97L29.28 30.97L29.28 32.4C29.28 32.78 29.13 33.15 28.86 33.42C28.59 33.69 28.23 33.84 27.85 33.84Z" fill="#FFFFFF" fill-opacity="1.000000" fill-rule="nonzero"/>
		<path id="Vector" d="M27.85 8.8L16.38 8.8L16.38 8.8Q16.13 8.8 15.88 8.85Q15.63 8.9 15.39 9Q15.16 9.09 14.95 9.23Q14.74 9.37 14.56 9.56Q14.37 9.74 14.23 9.95Q14.09 10.16 14 10.39Q13.9 10.63 13.85 10.88Q13.8 11.13 13.8 11.38L13.8 32.4Q13.8 32.67 13.85 32.92Q13.9 33.16 14 33.39Q14.09 33.63 14.23 33.84Q14.37 34.05 14.56 34.23Q14.74 34.41 14.95 34.55Q15.16 34.69 15.39 34.79Q15.63 34.89 15.88 34.94Q16.13 34.99 16.38 34.99L27.85 34.99Q28.11 34.99 28.37 34.94Q28.61 34.89 28.84 34.79Q29.08 34.69 29.28 34.55Q29.49 34.41 29.68 34.23Q29.86 34.05 30 33.84Q30.14 33.63 30.24 33.39Q30.34 33.16 30.39 32.91Q30.44 32.66 30.44 32.4L30.44 11.38Q30.44 11.12 30.38 10.87Q30.33 10.63 30.24 10.39Q30.14 10.16 30 9.95Q29.86 9.74 29.68 9.56Q29.49 9.37 29.28 9.23Q29.08 9.09 28.84 9Q28.6 8.9 28.35 8.85Q28.11 8.8 27.85 8.8ZM27.85 9L16.38 9C15.75 9 15.15 9.25 14.7 9.7C14.25 10.15 14 10.75 14 11.38L14 32.4C14 33.04 14.25 33.64 14.7 34.09C15.15 34.54 15.75 34.79 16.38 34.79L27.85 34.79C28.48 34.79 29.09 34.54 29.53 34.09C29.98 33.64 30.23 33.04 30.24 32.4L30.24 11.38C30.23 10.75 29.98 10.15 29.53 9.7C29.09 9.25 28.48 9 27.85 9ZM16.38 9.95L27.85 9.95C28.23 9.95 28.59 10.1 28.86 10.37C29.13 10.64 29.28 11 29.28 11.38L29.28 12.82L14.95 12.82L14.95 11.38C14.95 11 15.1 10.64 15.37 10.37C15.64 10.1 16 9.95 16.38 9.95ZM15.15 12.62L29.08 12.62L29.08 11.38Q29.08 11.26 29.06 11.14Q29.04 11.03 28.99 10.91Q28.94 10.8 28.87 10.7Q28.81 10.6 28.72 10.51Q28.63 10.42 28.53 10.36Q28.43 10.29 28.32 10.24Q28.21 10.2 28.09 10.17Q27.97 10.15 27.85 10.15L16.38 10.15Q16.26 10.15 16.14 10.17Q16.03 10.2 15.91 10.24Q15.8 10.29 15.7 10.36Q15.6 10.42 15.51 10.51Q15.42 10.6 15.36 10.7Q15.29 10.8 15.24 10.91Q15.2 11.03 15.17 11.14Q15.15 11.26 15.15 11.38L15.15 12.62ZM29.28 13.77L14.95 13.77L14.95 30.01L29.28 30.01L29.28 13.77ZM29.08 13.97L29.08 29.81L15.15 29.81L15.15 13.97L29.08 13.97ZM27.85 33.84L16.38 33.84C16 33.84 15.64 33.69 15.37 33.42C15.1 33.15 14.95 32.78 14.95 32.4L14.95 30.97L15.15 30.97L29.08 30.97L29.28 30.97L29.28 32.4C29.28 32.78 29.13 33.15 28.86 33.42C28.59 33.69 28.23 33.84 27.85 33.84ZM29.08 31.17L29.08 32.4Q29.08 32.53 29.06 32.64Q29.04 32.76 28.99 32.88Q28.94 32.99 28.87 33.09Q28.81 33.19 28.72 33.28Q28.63 33.36 28.53 33.43Q28.43 33.5 28.32 33.54Q28.21 33.59 28.09 33.61Q27.97 33.64 27.85 33.64L16.38 33.64Q16.26 33.64 16.14 33.61Q16.03 33.59 15.91 33.54Q15.8 33.5 15.7 33.43Q15.6 33.36 15.51 33.28Q15.42 33.19 15.36 33.09Q15.29 32.99 15.24 32.88Q15.2 32.76 15.17 32.64Q15.15 32.53 15.15 32.4L15.15 31.17L29.08 31.17Z" fill="#FFFFFF" fill-opacity="1.000000" fill-rule="evenodd"/>
	</g>
</svg>
