<svg width="45.000000" height="44.000000" viewBox="0 0 45 44" fill="none" xmlns="http://www.w3.org/2000/svg" xmlns:xlink="http://www.w3.org/1999/xlink">
	<desc>
			Created with Pixso.
	</desc>
	<defs>
		<clipPath id="clip285_1019">
			<rect id="ph:file-html-thin" rx="9.923828" width="44.847656" height="43.847656" transform="translate(0.076172 0.076172)" fill="white" fill-opacity="0"/>
		</clipPath>
	</defs>
	<rect id="ph:file-html-thin" rx="9.923828" width="44.847656" height="43.847656" transform="translate(0.076172 0.076172)" fill="#00ADB5" fill-opacity="1.000000"/>
	<g clip-path="url(#clip285_1019)">
		<path id="Vector" d="M22.66 34.16C20.39 34.16 18.36 32.12 17.09 28.63C16.99 28.36 17.13 28.05 17.41 27.97C17.68 27.86 17.98 28.01 18.08 28.28C19.18 31.31 20.89 33.12 22.66 33.12C23.93 33.12 25.2 32.19 26.21 30.51C26.29 30.39 26.4 30.31 26.54 30.28C26.67 30.25 26.81 30.27 26.93 30.34C27.04 30.41 27.13 30.53 27.16 30.66C27.2 30.79 27.18 30.93 27.11 31.05C25.89 33.06 24.31 34.16 22.66 34.16ZM27.97 28.35C27.92 28.35 27.86 28.34 27.82 28.32C27.53 28.23 27.41 27.94 27.46 27.66C28.09 25.75 28.39 23.54 28.39 21.26C28.39 16.03 26.69 11.4 24.27 9.9C23.93 10.39 23.33 10.77 22.66 10.77C21.62 10.77 20.77 9.93 20.77 8.88C20.77 7.84 21.62 7 22.66 7C23.7 7 24.56 7.82 24.57 8.86C27.45 10.39 29.45 15.43 29.45 21.26C29.45 23.64 29.11 25.96 28.47 27.98C28.4 28.2 28.2 28.35 27.97 28.35ZM22.66 8.04C22.19 8.04 21.81 8.42 21.81 8.88C21.81 9.34 22.21 9.71 22.66 9.71C23.13 9.71 23.52 9.34 23.52 8.88C23.52 8.42 23.13 8.04 22.66 8.04ZM11.9 29.46C10.85 29.46 10 28.61 10 27.57C10 26.91 10.35 26.31 10.88 25.97C10.69 22.7 14.07 18.42 19.26 15.44C21.42 14.22 23.67 13.34 25.81 12.89C26.05 12.82 26.36 13 26.42 13.28C26.49 13.57 26.31 13.85 26.05 13.91C24.01 14.34 21.85 15.19 19.8 16.35C15.13 19.03 11.92 22.86 11.92 25.69C12.96 25.7 13.83 26.54 13.83 27.57C13.83 28.62 12.94 29.46 11.9 29.46ZM11.9 26.73C11.43 26.73 11.05 27.11 11.05 27.57C11.05 28.05 11.43 28.42 11.9 28.42C12.36 28.42 12.75 28.05 12.75 27.57C12.75 27.11 12.36 26.73 11.9 26.73ZM31.48 22.53C31.39 22.53 31.27 22.49 31.17 22.41C31.07 22.32 31 22.19 30.99 22.05C30.98 21.91 31.03 21.77 31.12 21.67C33.21 19.22 33.93 16.86 33.03 15.34C32.39 14.24 30.94 13.62 28.94 13.6C28.65 13.6 28.41 13.35 28.43 13.07C28.43 12.78 28.67 12.56 28.96 12.55C31.34 12.58 33.11 13.38 33.94 14.81C35.08 16.76 34.34 19.51 31.92 22.34C31.81 22.47 31.66 22.53 31.48 22.53ZM28.77 29.95C26.05 29.95 22.57 28.95 19.26 27.06C17.15 25.85 15.28 24.37 13.83 22.79C13.73 22.69 13.68 22.56 13.68 22.42C13.68 22.28 13.73 22.15 13.83 22.05C14.07 21.86 14.4 21.87 14.6 22.09C15.97 23.58 17.76 24.99 19.79 26.15C24.29 28.73 29.13 29.58 31.69 28.35C31.58 28.12 31.48 27.85 31.48 27.57C31.48 26.53 32.37 25.69 33.41 25.69C34.46 25.69 35.32 26.53 35.32 27.57C35.31 27.91 35.22 28.25 35.05 28.54C34.87 28.83 34.62 29.07 34.33 29.23C34.03 29.4 33.69 29.48 33.35 29.46C33.01 29.45 32.68 29.35 32.39 29.16C31.44 29.69 30.21 29.95 28.77 29.95ZM32.84 28.23C33.02 28.34 33.21 28.42 33.41 28.42C33.64 28.42 33.85 28.33 34.01 28.17C34.17 28.01 34.26 27.8 34.26 27.57C34.26 27.35 34.17 27.14 34.01 26.98C33.85 26.82 33.64 26.73 33.41 26.73C32.94 26.73 32.57 27.11 32.57 27.57C32.57 27.76 32.64 27.94 32.75 28.09C32.8 28.12 32.84 28.17 32.84 28.23ZM12.41 20.58C12.24 20.58 12.06 20.47 11.96 20.31C10.74 18.2 10.54 16.25 11.38 14.79C12.52 12.84 15.29 12.1 19 12.77C19.26 12.82 19.48 13.11 19.42 13.38C19.38 13.66 19.11 13.85 18.82 13.79C15.62 13.23 13.15 13.79 12.29 15.32C11.64 16.44 11.84 18.01 12.87 19.78C13.01 20.04 12.93 20.35 12.67 20.5C12.59 20.54 12.51 20.58 12.41 20.58ZM22.94 22.48C22.62 22.55 22.28 22.49 22 22.31C21.72 22.14 21.52 21.85 21.45 21.53C21.37 21.21 21.43 20.87 21.61 20.59C21.79 20.31 22.07 20.11 22.4 20.04C23.08 19.9 23.76 20.32 23.89 21C24.01 21.67 23.61 22.33 22.94 22.48Z" fill="#FFFFFF" fill-opacity="1.000000" fill-rule="nonzero"/>
	</g>
</svg>
